<?xml version="1.0" encoding="UTF-8"?>
<svg id="Layer_2" data-name="Layer 2" xmlns="http://www.w3.org/2000/svg" xmlns:xlink="http://www.w3.org/1999/xlink" viewBox="0 0 37.46 37.46">
  <defs>
    <style>
      .cls-1 {
        fill: url(#radial-gradient);
      }

      .cls-1, .cls-2 {
        stroke-width: 0px;
      }

      .cls-2 {
        fill: #1d1d1b;
      }
    </style>
    <radialGradient id="radial-gradient" cx="-138.19" cy="-389.77" fx="-151.25" fy="-376.31" r="18.75" gradientTransform="translate(-115.85 -370.18) rotate(-180)" gradientUnits="userSpaceOnUse">
      <stop offset="0" stop-color="#e5db9a"/>
      <stop offset="1" stop-color="#e0bc00"/>
    </radialGradient>
  </defs>
  <g id="Layer_1-2" data-name="Layer 1">
    <g>
      <circle class="cls-1" cx="18.73" cy="18.73" r="18.73"/>
      <path class="cls-2" d="M16.26,16.92c2.95-.13,5.03-1.32,5.03-2.86,0-1.34-1.25-2.5-3.21-2.5-1.57,0-3.02.83-4.04,1.99l-2.69-2.76c1.83-2.05,4.36-3.47,7.54-3.47,4.26,0,7.22,2.66,7.22,6.29,0,2.89-2.37,5.48-5.68,6.25v2.31h-4.17v-5.26ZM15.37,27.15c0-1.51,1.31-2.85,2.98-2.85,1.57,0,2.85,1.35,2.85,2.85,0,1.64-1.28,2.98-2.85,2.98-1.67,0-2.98-1.34-2.98-2.98Z"/>
    </g>
  </g>
</svg>