<?xml version="1.0" encoding="UTF-8"?>
<svg id="Layer_2" data-name="Layer 2" xmlns="http://www.w3.org/2000/svg" xmlns:xlink="http://www.w3.org/1999/xlink" viewBox="0 0 23.71 36.65">
  <defs>
    <style>
      .cls-1 {
        fill: url(#radial-gradient);
        stroke-width: 0px;
      }
    </style>
    <radialGradient id="radial-gradient" cx="11.86" cy="18.32" fx="11.86" fy="18.32" r="15.43" gradientUnits="userSpaceOnUse">
      <stop offset="0" stop-color="#e5db9a"/>
      <stop offset="1" stop-color="#e0bc00"/>
    </radialGradient>
  </defs>
  <g id="Layer_1-2" data-name="Layer 1">
    <path class="cls-1" d="M7.89,15.41c4.74-.21,8.09-2.12,8.09-4.59,0-2.16-2.01-4.02-5.15-4.02-2.53,0-4.85,1.34-6.5,3.19L0,5.57C2.94,2.27,7.01,0,12.12,0c6.85,0,11.6,4.28,11.6,10.11,0,4.64-3.81,8.81-9.12,10.05v3.71h-6.7v-8.45ZM6.45,31.85c0-2.42,2.11-4.59,4.79-4.59,2.53,0,4.59,2.17,4.59,4.59,0,2.63-2.06,4.79-4.59,4.79-2.68,0-4.79-2.16-4.79-4.79Z"/>
  </g>
</svg>